<?xml version="1.0" standalone="no"?>
<!DOCTYPE svg PUBLIC "-//W3C//DTD SVG 20010904//EN"
 "http://www.w3.org/TR/2001/REC-SVG-20010904/DTD/svg10.dtd">
<svg version="1.0" xmlns="http://www.w3.org/2000/svg"
 width="2538.000000pt" height="1348.000000pt" viewBox="0 0 2538.000000 1348.000000"
 preserveAspectRatio="xMidYMid meet">

<g transform="translate(0.000000,1348.000000) scale(0.100000,-0.100000)"
fill="#000000" stroke="none">
<path d="M0 6740 l0 -6740 12690 0 12690 0 0 6740 0 6740 -12690 0 -12690 0 0
-6740z m10276 1602 c-194 -1337 -355 -2434 -358 -2437 -7 -8 -152 113 -276
230 -210 198 -438 495 -579 755 -104 190 -217 493 -262 701 -69 321 -69 707
-1 1038 176 845 806 1614 1710 2090 63 33 115 59 117 58 1 -1 -157 -1097 -351
-2435z m3005 2108 c579 -59 1098 -401 1245 -820 74 -212 73 -433 -2 -660 -36
-106 -113 -265 -180 -368 -97 -149 -90 -151 -85 29 7 319 -65 539 -237 721
-84 89 -165 146 -283 202 -231 109 -519 132 -767 60 -329 -95 -582 -359 -664
-691 -16 -68 -21 -120 -22 -228 -1 -141 7 -196 46 -330 128 -444 606 -852
1158 -989 374 -93 806 -71 1197 59 472 157 844 477 1058 910 108 219 165 408
194 645 16 121 13 387 -4 509 -26 185 -100 428 -177 586 l-29 60 128 -130
c241 -244 422 -498 558 -780 444 -924 323 -1921 -337 -2773 -111 -143 -392
-424 -553 -551 -432 -344 -959 -605 -1534 -761 -866 -235 -1820 -222 -2686 36
-142 43 -345 116 -345 124 0 10 343 194 505 271 570 271 1165 482 1707 605 42
10 75 21 73 25 -3 4 -21 10 -42 14 -20 3 -105 29 -188 56 -708 229 -1259 626
-1560 1124 -243 403 -321 993 -196 1486 130 513 469 991 906 1275 340 221 738
322 1116 284z m-4276 -6665 c280 -7 467 -21 540 -40 89 -23 232 -97 302 -157
127 -107 225 -265 258 -412 14 -61 16 -138 13 -521 l-3 -450 -28 -80 c-82
-232 -283 -426 -511 -492 -102 -30 -215 -39 -645 -54 -348 -12 -916 -2 -1216
21 -226 17 -366 80 -517 231 -86 86 -102 109 -146 201 -78 160 -77 154 -77
658 0 467 0 469 47 590 62 157 209 322 353 397 160 83 276 99 825 112 286 8
362 7 805 -4z m8046 0 c420 -11 558 -29 682 -91 173 -87 317 -242 386 -416 48
-121 53 -183 49 -643 l-3 -420 -28 -80 c-37 -104 -67 -158 -136 -244 -99 -124
-242 -219 -391 -263 -150 -43 -796 -67 -1352 -49 -590 19 -658 27 -805 97
-184 88 -330 255 -404 464 -23 64 -23 75 -27 509 -3 387 -1 455 13 520 56 251
247 467 490 554 100 35 178 45 455 57 392 18 536 18 1071 5z m-10859 -45 c165
-51 288 -182 333 -355 22 -86 22 -694 0 -780 -45 -173 -168 -304 -333 -355
-62 -19 -95 -20 -948 -20 l-884 0 0 -300 0 -300 -315 0 -315 0 0 1065 0 1065
1199 0 c1168 0 1201 -1 1263 -20z m5098 -1045 l0 -1065 -320 0 -320 0 0 1065
0 1065 320 0 320 0 0 -1065z m3140 860 l0 -205 -862 0 c-518 0 -891 -4 -933
-10 -111 -16 -141 -49 -152 -164 -13 -138 42 -198 198 -216 46 -6 343 -10 659
-10 606 0 682 -4 839 -46 304 -80 415 -250 415 -634 0 -176 -13 -259 -54 -345
-83 -175 -244 -244 -639 -275 -81 -6 -513 -10 -1073 -10 l-938 0 0 204 0 205
933 4 c689 3 944 7 979 16 108 28 149 85 152 209 3 164 -51 215 -242 232 -59
5 -354 14 -657 20 -302 6 -597 16 -655 21 -210 20 -357 70 -439 151 -85 84
-110 167 -118 393 -15 436 100 582 504 639 160 23 127 22 1141 24 l942 2 0
-205z m5927 -605 l718 -811 3 811 2 810 310 0 310 0 0 -1065 0 -1065 -487 2
-487 3 -696 804 -695 804 -3 -806 -2 -807 -310 0 -310 0 0 1065 0 1065 465 0
464 0 718 -810z"/>
<path d="M8045 3300 c-168 -12 -269 -59 -333 -153 -60 -87 -63 -110 -60 -458
3 -305 4 -315 26 -360 51 -103 145 -174 260 -198 169 -35 1097 -32 1238 5 117
30 210 110 251 215 14 37 18 89 21 327 4 297 -2 357 -39 428 -47 89 -147 160
-260 184 -66 14 -943 22 -1104 10z"/>
<path d="M16100 3301 c-118 -10 -152 -17 -215 -48 -98 -49 -160 -131 -184
-241 -6 -31 -11 -156 -11 -302 0 -263 7 -324 46 -401 31 -62 112 -133 182
-159 83 -32 251 -42 682 -42 464 -1 597 10 693 54 83 38 147 105 176 184 20
51 21 77 21 358 0 347 -4 374 -73 459 -48 58 -138 110 -222 128 -60 12 -957
21 -1095 10z"/>
<path d="M4370 2990 l0 -291 683 3 684 3 49 30 c30 19 60 49 78 79 27 43 31
59 34 144 6 124 -9 188 -55 242 -72 84 -30 80 -795 80 l-678 0 0 -290z"/>
</g>
</svg>
